<svg width="560" height="560" viewBox="0 0 560 560" fill="none" xmlns="http://www.w3.org/2000/svg">
<path d="M280 560C434.64 560 560 434.64 560 280C560 125.36 434.64 0 280 0C125.36 0 0 125.36 0 280C0 434.64 125.36 560 280 560Z" fill="#2D9CDB"/>
<path d="M191.838 455.68C184.978 455.68 179.448 453.58 175.265 449.398C171.083 445.215 169 439.703 169 432.825V228.53C169 205.255 174.513 184.028 185.573 164.918C196.115 146.312 211.421 130.849 229.918 120.118C248.433 109.373 269.188 104 292.2 104C315.195 104 336.248 109.373 355.375 120.118C373.872 130.849 389.178 146.312 399.72 164.918C410.465 184.028 415.838 205.238 415.838 228.53C415.838 251.823 410.92 272.893 401.05 291.705C390.9 310.815 377.163 325.76 359.838 336.505C342.215 347.25 322.65 352.64 301.16 352.64C284.612 352.761 268.249 349.16 253.282 342.102C238.314 335.044 225.126 324.71 214.693 311.865V432.825C214.693 439.703 212.593 445.215 208.41 449.398C203.931 453.595 197.974 455.853 191.838 455.68ZM292.2 144.32C277.255 144.32 263.815 147.89 251.88 155.065C239.731 162.422 229.815 172.948 223.198 185.515C216.338 198.378 212.89 212.71 212.89 228.53C212.89 244.35 216.338 258.56 223.215 271.09C229.755 283.597 239.691 294.006 251.88 301.12C263.815 308.575 277.255 312.32 292.2 312.32C307.128 312.32 320.725 308.575 332.975 301.12C345.029 293.835 354.924 283.47 361.64 271.09C368.5 258.56 371.93 244.368 371.93 228.53C371.93 212.693 368.5 198.378 361.64 185.533C354.846 173.088 344.97 162.597 332.958 155.065C320.708 147.89 307.128 144.32 292.183 144.32H292.2Z" fill="white"/>
</svg>
